<?xml version="1.0" standalone="no"?><svg xmlns="http://www.w3.org/2000/svg" viewBox="0 0 1440 320"><path fill="#24262b" fill-opacity="1" d="M0,128L26.7,122.7C53.3,117,107,107,160,117.3C213.3,128,267,160,320,192C373.3,224,427,256,480,245.3C533.3,235,587,181,640,186.7C693.3,192,747,256,800,266.7C853.3,277,907,235,960,213.3C1013.3,192,1067,192,1120,165.3C1173.3,139,1227,85,1280,96C1333.3,107,1387,181,1413,218.7L1440,256L1440,320L1413.3,320C1386.7,320,1333,320,1280,320C1226.7,320,1173,320,1120,320C1066.7,320,1013,320,960,320C906.7,320,853,320,800,320C746.7,320,693,320,640,320C586.7,320,533,320,480,320C426.7,320,373,320,320,320C266.7,320,213,320,160,320C106.7,320,53,320,27,320L0,320Z"></path></svg>