<?xml version="1.0" standalone="no"?><svg xmlns="http://www.w3.org/2000/svg" viewBox="0 0 1440 320"><path fill="#0a4d68" fill-opacity="1" d="M0,160L24,138.7C48,117,96,75,144,85.3C192,96,240,160,288,197.3C336,235,384,245,432,234.7C480,224,528,192,576,202.7C624,213,672,267,720,250.7C768,235,816,149,864,122.7C912,96,960,128,1008,149.3C1056,171,1104,181,1152,170.7C1200,160,1248,128,1296,138.7C1344,149,1392,203,1416,229.3L1440,256L1440,320L1416,320C1392,320,1344,320,1296,320C1248,320,1200,320,1152,320C1104,320,1056,320,1008,320C960,320,912,320,864,320C816,320,768,320,720,320C672,320,624,320,576,320C528,320,480,320,432,320C384,320,336,320,288,320C240,320,192,320,144,320C96,320,48,320,24,320L0,320Z"></path></svg>